# xmcd
#
# Track frame offsets:
# 150
# 19725
# 37800
# 57000
# 77925
# 96825
# 119550
# 138525
# 159300
# 174150
# 193425
# 212400
# 230625
# 249675
#
# Disc length: 3603 seconds
#
#
# Revision: 3
# Processed by: cddbd v1.4PL0 Copyright (c) Steve Scherf et al.
# Submitted via: FreeRIP 2.30 
#
DISCID=bc0e110e
DTITLE=Eros Ramazzotti - En ciertos momentos
DYEAR=1900
DGENRE=Opera
TTITLE0=Mi vida es un absurdo
TTITLE1=Ok, ya voy
TTITLE2=La luce buona delle stelle
TTITLE3=El juego de la no verdad
TTITLE4=Fantastico amor
TTITLE5=Chao papa
TTITLE6=Las cosas que he visto
TTITLE7=Dialogo
TTITLE8=Ojos de esperanza
TTITLE9=Mientras el cuerpo resista
TTITLE10=Una historia importante
TTITLE11=Ahora tu
TTITLE12=Un nuovo amore
TTITLE13=Emociones, cuantas emociones
EXTD=
EXTT0=
EXTT1=
EXTT2=
EXTT3=
EXTT4=
EXTT5=
EXTT6=
EXTT7=
EXTT8=
EXTT9=
EXTT10=
EXTT11=
EXTT12=
EXTT13=
PLAYORDER=
